<svg xmlns="http://www.w3.org/2000/svg" viewBox="0 0 640 360" fill="none">
  <defs>
    <linearGradient id="bg" x1="0" y1="0" x2="1" y2="1">
      <stop offset="0%" stop-color="#1E1B4B" />
      <stop offset="55%" stop-color="#312E81" />
      <stop offset="100%" stop-color="#0F172A" />
    </linearGradient>
  </defs>
  <rect x="0" y="0" width="640" height="360" fill="url(#bg)" />
  <rect x="22" y="20" width="596" height="320" rx="18" fill="#050816" stroke="#6366F1" stroke-opacity="0.4" />
  <rect x="42" y="42" width="556" height="40" rx="8" fill="#111827" />
  <text x="64" y="67" fill="#E0E7FF" font-size="22" font-family="Arial, Helvetica, sans-serif" font-weight="700">IRIS PRESENTATION ATTACK</text>
  <text x="64" y="95" fill="#CBD5E1" font-size="12" font-family="Arial, Helvetica, sans-serif">Abstract preview</text>
  <line x1="42" y1="126" x2="598" y2="126" stroke="#312E81" stroke-width="1" />
  <rect x="42" y="145" width="520" height="12" rx="6" fill="#1E293B" />
  <rect x="42" y="170" width="488" height="12" rx="6" fill="#1E293B" />
  <rect x="42" y="195" width="560" height="12" rx="6" fill="#1E293B" />
  <rect x="42" y="220" width="452" height="12" rx="6" fill="#1E293B" />
  <rect x="42" y="245" width="520" height="12" rx="6" fill="#1E293B" />
  <rect x="42" y="276" width="420" height="12" rx="6" fill="#1E293B" />
  <rect x="42" y="301" width="190" height="12" rx="6" fill="#1E293B" />
  <rect x="46" y="324" width="110" height="12" rx="6" fill="#6366F1" fill-opacity="0.5" />
</svg>
