<svg xmlns="http://www.w3.org/2000/svg" viewBox="0 0 640 360" fill="none">
  <defs>
    <linearGradient id="bg" x1="0" y1="0" x2="1" y2="1">
      <stop offset="0%" stop-color="#042F2E" />
      <stop offset="55%" stop-color="#0F766E" />
      <stop offset="100%" stop-color="#052E16" />
    </linearGradient>
  </defs>
  <rect x="0" y="0" width="640" height="360" fill="url(#bg)" />
  <rect x="22" y="20" width="596" height="320" rx="18" fill="#02130F" stroke="#2DD4BF" stroke-opacity="0.45" />
  <rect x="42" y="42" width="556" height="40" rx="8" fill="#08332C" />
  <text x="64" y="67" fill="#CCFBF1" font-size="22" font-family="Arial, Helvetica, sans-serif" font-weight="700">HCFSLN ANXIETY DETECTION</text>
  <text x="64" y="95" fill="#A7F3D0" font-size="12" font-family="Arial, Helvetica, sans-serif">Abstract preview</text>
  <line x1="42" y1="126" x2="598" y2="126" stroke="#0F766E" stroke-width="1" />
  <rect x="42" y="145" width="520" height="12" rx="6" fill="#042F2E" />
  <rect x="42" y="170" width="488" height="12" rx="6" fill="#042F2E" />
  <rect x="42" y="195" width="560" height="12" rx="6" fill="#042F2E" />
  <rect x="42" y="220" width="452" height="12" rx="6" fill="#042F2E" />
  <rect x="42" y="245" width="520" height="12" rx="6" fill="#042F2E" />
  <rect x="42" y="276" width="420" height="12" rx="6" fill="#042F2E" />
  <rect x="42" y="301" width="190" height="12" rx="6" fill="#2DD4BF" fill-opacity="0.5" />
</svg>
