<svg xmlns="http://www.w3.org/2000/svg" viewBox="0 0 640 360" fill="none">
  <defs>
    <linearGradient id="bg" x1="0" y1="0" x2="1" y2="1">
      <stop offset="0%" stop-color="#2E1065" />
      <stop offset="55%" stop-color="#6D28D9" />
      <stop offset="100%" stop-color="#1E1B4B" />
    </linearGradient>
  </defs>
  <rect x="0" y="0" width="640" height="360" fill="url(#bg)" />
  <rect x="22" y="20" width="596" height="320" rx="18" fill="#140B3C" stroke="#A855F7" stroke-opacity="0.45" />
  <rect x="42" y="42" width="556" height="40" rx="8" fill="#2A0E61" />
  <text x="64" y="67" fill="#E9D5FF" font-size="22" font-family="Arial, Helvetica, sans-serif" font-weight="700">DYSTAN SENSOR CONTEXT</text>
  <text x="64" y="95" fill="#DDD6FE" font-size="12" font-family="Arial, Helvetica, sans-serif">Abstract preview</text>
  <line x1="42" y1="126" x2="598" y2="126" stroke="#6D28D9" stroke-width="1" />
  <rect x="42" y="145" width="520" height="12" rx="6" fill="#311B73" />
  <rect x="42" y="170" width="488" height="12" rx="6" fill="#311B73" />
  <rect x="42" y="195" width="560" height="12" rx="6" fill="#311B73" />
  <rect x="42" y="220" width="452" height="12" rx="6" fill="#311B73" />
  <rect x="42" y="245" width="520" height="12" rx="6" fill="#311B73" />
  <rect x="42" y="276" width="420" height="12" rx="6" fill="#311B73" />
  <rect x="42" y="301" width="190" height="12" rx="6" fill="#A855F7" fill-opacity="0.5" />
</svg>
