<svg width="1280" height="720" viewBox="0 0 1280 720" fill="none" xmlns="http://www.w3.org/2000/svg">
  <defs>
    <linearGradient id="ed-bg" x1="0" y1="0" x2="1" y2="1">
      <stop offset="0%" stop-color="#1e1033"/>
      <stop offset="100%" stop-color="#081a3f"/>
    </linearGradient>
    <linearGradient id="node-grad" x1="0" y1="0" x2="1" y2="1">
      <stop offset="0%" stop-color="#22d3ee"/>
      <stop offset="100%" stop-color="#a855f7"/>
    </linearGradient>
  </defs>
  <rect width="1280" height="720" fill="url(#ed-bg)"/>
  <rect x="78" y="96" width="1124" height="528" rx="28" fill="#050816" fill-opacity="0.64" stroke="#8b5cf6" stroke-opacity="0.45"/>
  <circle cx="220" cy="230" r="60" fill="url(#node-grad)" opacity="0.85"/>
  <circle cx="220" cy="230" r="95" stroke="#93c5fd" stroke-opacity="0.35" stroke-width="4" fill="none"/>
  <circle cx="560" cy="230" r="60" fill="url(#node-grad)" opacity="0.78"/>
  <circle cx="560" cy="230" r="95" stroke="#a7f3d0" stroke-opacity="0.35" stroke-width="4" fill="none"/>
  <circle cx="900" cy="230" r="60" fill="url(#node-grad)" opacity="0.7"/>
  <circle cx="900" cy="230" r="95" stroke="#f9a8d4" stroke-opacity="0.35" stroke-width="4" fill="none"/>
  <line x1="280" y1="230" x2="500" y2="230" stroke="#6366f1" stroke-width="4"/>
  <line x1="620" y1="230" x2="840" y2="230" stroke="#6366f1" stroke-width="4"/>
  <path d="M220 290V420C220 472 262 514 314 514H966C1018 514 1060 472 1060 420V290" stroke="#22d3ee" stroke-opacity="0.4" stroke-width="3" stroke-dasharray="14 10"/>
  <rect x="188" y="318" width="64" height="64" rx="12" fill="#0f172a" fill-opacity="0.8" stroke="#67e8f9" />
  <rect x="528" y="318" width="64" height="64" rx="12" fill="#0f172a" fill-opacity="0.8" stroke="#67e8f9" />
  <rect x="868" y="318" width="64" height="64" rx="12" fill="#0f172a" fill-opacity="0.8" stroke="#67e8f9" />
  <text x="203" y="359" fill="#67e8f9" font-size="15" font-weight="600" font-family="Arial, Helvetica, sans-serif">Docs</text>
  <text x="528" y="359" fill="#67e8f9" font-size="15" font-weight="600" font-family="Arial, Helvetica, sans-serif">RAG</text>
  <text x="857" y="359" fill="#67e8f9" font-size="15" font-weight="600" font-family="Arial, Helvetica, sans-serif">Memory</text>
  <rect x="188" y="410" width="760" height="80" rx="16" fill="#0f172a" fill-opacity="0.45" stroke="#6366f1" stroke-opacity="0.45"/>
  <rect x="220" y="435" width="160" height="12" rx="6" fill="#22d3ee"/>
  <rect x="220" y="457" width="230" height="12" rx="6" fill="#a855f7" opacity="0.7"/>
  <rect x="220" y="479" width="140" height="12" rx="6" fill="#67e8f9" opacity="0.6"/>
  <text x="108" y="646" fill="#d9e3ff" font-size="42" font-weight="600" font-family="Arial, Helvetica, sans-serif">EDMS - ENTERPRISE RAG</text>
  <text x="108" y="686" fill="#94a3b8" font-size="24" font-family="Arial, Helvetica, sans-serif">Multimodal retrieval + decision memory workflows</text>
</svg>
